<svg width="145" height="38" viewBox="0 0 145 38" fill="none" xmlns="http://www.w3.org/2000/svg">
<path d="M35.7676 30.45V4.33904H46.1213C47.8862 4.33904 49.3307 4.69565 50.455 5.40886C51.5913 6.10999 52.4314 7.01057 52.9754 8.11062C53.5314 9.21066 53.8095 10.347 53.8095 11.5195C53.8095 12.9581 53.465 14.179 52.7759 15.1823C52.099 16.1857 51.1742 16.8626 50.0016 17.2132V16.3065C51.6457 16.6813 52.8908 17.461 53.7369 18.6456C54.5952 19.8303 55.0244 21.1782 55.0244 22.6892C55.0244 24.2365 54.7282 25.5904 54.1359 26.7509C53.5435 27.9114 52.6611 28.818 51.4885 29.4708C50.328 30.1236 48.8895 30.45 47.173 30.45H35.7676ZM40.1919 26.3339H46.629C47.3905 26.3339 48.0735 26.1828 48.678 25.8805C49.2824 25.5662 49.7538 25.1311 50.0923 24.575C50.4429 24.0068 50.6181 23.3359 50.6181 22.5623C50.6181 21.8612 50.467 21.2326 50.1648 20.6765C49.8626 20.1204 49.4214 19.6792 48.8412 19.3528C48.2609 19.0143 47.5658 18.8451 46.7559 18.8451H40.1919V26.3339ZM40.1919 14.7653H46.0669C46.6955 14.7653 47.2576 14.6444 47.7532 14.4026C48.2488 14.1609 48.6417 13.8042 48.9318 13.3328C49.2219 12.8614 49.367 12.2811 49.367 11.5921C49.367 10.6854 49.0769 9.92992 48.4966 9.3255C47.9164 8.72108 47.1065 8.41887 46.0669 8.41887H40.1919V14.7653ZM67.295 30.9939C65.3367 30.9939 63.6262 30.5527 62.1635 29.6703C60.7008 28.7878 59.5645 27.5729 58.7546 26.0256C57.9567 24.4662 57.5578 22.6771 57.5578 20.6584C57.5578 18.6033 57.9688 16.8022 58.7908 15.2549C59.6128 13.7075 60.7552 12.4987 62.2179 11.6283C63.6806 10.758 65.373 10.3228 67.295 10.3228C69.2654 10.3228 70.982 10.764 72.4447 11.6465C73.9074 12.5289 75.0437 13.7498 75.8536 15.3092C76.6635 16.8566 77.0685 18.6396 77.0685 20.6584C77.0685 22.6892 76.6575 24.4843 75.8355 26.0437C75.0255 27.591 73.8892 28.8059 72.4265 29.6884C70.9638 30.5587 69.2533 30.9939 67.295 30.9939ZM67.295 26.896C69.0357 26.896 70.3292 26.3157 71.1754 25.1552C72.0216 23.9948 72.4447 22.4958 72.4447 20.6584C72.4447 18.7605 72.0155 17.2494 71.1573 16.1252C70.299 14.9889 69.0116 14.4208 67.295 14.4208C66.1224 14.4208 65.1554 14.6867 64.3938 15.2186C63.6443 15.7384 63.0883 16.4697 62.7256 17.4126C62.363 18.3434 62.1816 19.4253 62.1816 20.6584C62.1816 22.5562 62.6108 24.0733 63.469 25.2096C64.3394 26.3339 65.6147 26.896 67.295 26.896ZM81.4262 30.45V3.79506H85.7962V30.45H81.4262ZM99.0792 30.9939C97.278 30.9939 95.7065 30.5406 94.3647 29.634C93.0229 28.7274 91.9833 27.4943 91.2459 25.9349C90.5085 24.3755 90.1398 22.6167 90.1398 20.6584C90.1398 18.6759 90.5085 16.911 91.2459 15.3636C91.9954 13.8042 93.0531 12.5773 94.4191 11.6827C95.7851 10.7761 97.3928 10.3228 99.2423 10.3228C101.104 10.3228 102.663 10.7761 103.921 11.6827C105.19 12.5773 106.151 13.8042 106.804 15.3636C107.456 16.923 107.783 18.688 107.783 20.6584C107.783 22.6046 107.456 24.3634 106.804 25.9349C106.151 27.4943 105.178 28.7274 103.884 29.634C102.591 30.5406 100.989 30.9939 99.0792 30.9939ZM99.7501 27.0773C100.923 27.0773 101.866 26.8113 102.579 26.2795C103.304 25.7355 103.83 24.98 104.156 24.0129C104.495 23.0458 104.664 21.9276 104.664 20.6584C104.664 19.377 104.495 18.2588 104.156 17.3038C103.83 16.3368 103.316 15.5873 102.615 15.0554C101.914 14.5114 101.007 14.2394 99.8951 14.2394C98.7225 14.2394 97.7555 14.5295 96.9939 15.1098C96.2323 15.6779 95.6702 16.4516 95.3076 17.4308C94.9449 18.3978 94.7636 19.4737 94.7636 20.6584C94.7636 21.8551 94.9389 22.9431 95.2894 23.9222C95.6521 24.8893 96.2021 25.6569 96.9395 26.2251C97.6769 26.7932 98.6138 27.0773 99.7501 27.0773ZM104.664 30.45V16.7055H104.12V4.33904H108.526V30.45H104.664ZM122.259 30.9939C120.301 30.9939 118.591 30.5527 117.128 29.6703C115.665 28.7878 114.529 27.5729 113.719 26.0256C112.921 24.4662 112.522 22.6771 112.522 20.6584C112.522 18.6033 112.933 16.8022 113.755 15.2549C114.577 13.7075 115.72 12.4987 117.182 11.6283C118.645 10.758 120.337 10.3228 122.259 10.3228C124.23 10.3228 125.946 10.764 127.409 11.6465C128.872 12.5289 130.008 13.7498 130.818 15.3092C131.628 16.8566 132.033 18.6396 132.033 20.6584C132.033 22.6892 131.622 24.4843 130.8 26.0437C129.99 27.591 128.854 28.8059 127.391 29.6884C125.928 30.5587 124.218 30.9939 122.259 30.9939ZM122.259 26.896C124 26.896 125.294 26.3157 126.14 25.1552C126.986 23.9948 127.409 22.4958 127.409 20.6584C127.409 18.7605 126.98 17.2494 126.122 16.1252C125.263 14.9889 123.976 14.4208 122.259 14.4208C121.087 14.4208 120.12 14.6867 119.358 15.2186C118.609 15.7384 118.053 16.4697 117.69 17.4126C117.327 18.3434 117.146 19.4253 117.146 20.6584C117.146 22.5562 117.575 24.0733 118.433 25.2096C119.304 26.3339 120.579 26.896 122.259 26.896Z" fill="white"/>
<path d="M0 16.45H14.3176C19.201 16.45 23.1597 20.4087 23.1597 25.2921C23.1597 30.1754 19.201 34.1342 14.3176 34.1342H0V16.45Z" fill="white"/>
<path d="M0 0.976318H9.47954C13.1421 0.976318 16.1111 3.94538 16.1111 7.6079C16.1111 11.2704 13.1421 14.2395 9.47954 14.2395H0V0.976318Z" fill="white"/>
</svg>
