<svg width="147" height="37" viewBox="0 0 147 37" fill="none" xmlns="http://www.w3.org/2000/svg">
<g clip-path="url(#clip0_0_457)">
<g clip-path="url(#clip1_0_457)">
<path d="M9.33955 2.69273C9.30215 2.62059 9.27934 2.54179 9.27242 2.46082C9.26549 2.37986 9.27458 2.29833 9.29918 2.22088C9.32377 2.14343 9.36338 2.07159 9.41574 2.00946C9.46811 1.94732 9.53221 1.89611 9.60437 1.85876C11.8186 0.73277 14.2783 0.175537 16.7616 0.237293C19.2449 0.29905 21.6739 0.977855 23.8294 2.21251C23.9001 2.25317 23.9621 2.30743 24.0117 2.37215C24.0613 2.43687 24.0977 2.51078 24.1186 2.58962C24.1395 2.66845 24.1446 2.75065 24.1336 2.83146C24.1226 2.91228 24.0957 2.99012 24.0545 3.06049L16.9334 15.2818C16.8791 15.3754 16.8011 15.453 16.7072 15.5069C16.6134 15.5608 16.507 15.5891 16.3988 15.589H16.3831C16.2722 15.586 16.1642 15.5534 16.0702 15.4946C15.9762 15.4358 15.8996 15.3529 15.8485 15.2545L9.33955 2.69273ZM16.0168 18.8483V18.8471L9.50763 6.28529C9.43203 6.13986 9.30197 6.03024 9.14583 5.98037C8.9897 5.9305 8.82018 5.94442 8.67427 6.0191C6.9395 6.90861 5.39748 8.13195 4.1367 9.61893C2.87592 11.1059 1.92122 12.8272 1.32738 14.6841C0.733546 16.541 0.512268 18.4969 0.67625 20.4395C0.840232 22.3821 1.38624 24.2732 2.28295 26.0043C3.17966 27.7353 4.4094 29.2722 5.9016 30.5268C7.3938 31.7814 9.11907 32.729 10.9784 33.3151C12.8377 33.9012 14.7945 34.1143 16.7364 33.9423C18.6784 33.7702 20.5672 33.2164 22.2945 32.3125C22.4396 32.2365 22.5487 32.1062 22.5981 31.9501C22.6475 31.7939 22.6332 31.6246 22.5582 31.479L16.0168 18.8483ZM23.6468 30.7218L23.6964 30.8209C23.7712 30.967 23.9001 31.0781 24.0556 31.1306C24.1194 31.1517 24.1867 31.1601 24.2538 31.1553C24.3518 31.1526 24.4484 31.1316 24.5387 31.0934C24.7641 30.9817 24.9833 30.8576 25.1951 30.7218C25.8251 30.3563 26.4256 29.9422 26.9912 29.4832H23.0027L23.6468 30.7218ZM22.3587 28.2445H28.3413C28.7259 27.858 29.082 27.4441 29.4065 27.0059H21.7146L22.3587 28.2445ZM21.0829 25.7673H30.286C30.5397 25.3696 30.7672 24.9558 30.9672 24.5286H20.4388L21.0829 25.7673ZM19.7947 23.29H31.5122C31.6766 22.8856 31.8172 22.472 31.9333 22.0513H19.1506L19.7947 23.29ZM18.5065 20.8127H32.243C32.3173 20.4039 32.3793 19.9952 32.4164 19.574H17.8748L18.5065 20.8127ZM25.1456 5.15627C25.0761 5.11304 24.9981 5.08515 24.9169 5.07447C24.8358 5.06379 24.7533 5.07056 24.6749 5.09434C24.5947 5.11266 24.5191 5.14744 24.453 5.19648C24.3869 5.24552 24.3317 5.30775 24.2909 5.37922L23.9565 5.949H26.3471C25.961 5.66346 25.56 5.39883 25.1456 5.15627ZM27.8458 7.18764H23.2381L22.5197 8.42628H29.0225C28.6561 7.98967 28.2631 7.57601 27.8458 7.18764ZM29.9515 9.66492H21.7889L21.0705 10.9036H30.7071C30.4836 10.474 30.2312 10.0602 29.9515 9.66492ZM31.3016 12.1422H20.3521L19.6336 13.3808H31.7847C31.6474 12.9591 31.4861 12.5455 31.3016 12.1422ZM32.1315 14.6195H18.9028L18.1844 15.8581H32.3545C32.3053 15.4411 32.2309 15.0275 32.1315 14.6195ZM32.4784 17.0968H17.466L17.1687 17.6046C17.1151 17.694 17.0857 17.796 17.0835 17.9002C17.0814 18.0045 17.1065 18.1076 17.1564 18.1992L17.2307 18.3354H32.5031C32.5155 18.2115 32.5155 18.0753 32.5155 17.9514C32.5155 17.6665 32.5031 17.3817 32.4784 17.0968Z" fill="white"/>
<path d="M9.05506 5.40689C8.82801 4.97667 8.29363 4.80987 7.8768 5.06066C4.57693 7.04602 2.11153 10.1819 0.968125 13.8808C-0.262245 17.8609 0.138882 22.1668 2.08326 25.8512C4.02764 29.5356 7.356 32.2966 11.3361 33.527C15.035 34.6704 19.0151 34.4048 22.5163 32.801C22.9586 32.5984 23.1225 32.0631 22.8954 31.6329L15.9752 18.5199L9.05506 5.40689Z" fill="white"/>
</g>
<path d="M54.6158 6.48686C56.3373 6.48686 57.8037 6.76315 59.0151 7.31571C60.2265 7.86828 61.151 8.66525 61.7885 9.70662C62.4261 10.748 62.7449 12.0125 62.7449 13.5002C62.7449 14.9879 62.4261 16.2524 61.7885 17.2938C61.151 18.3351 60.2265 19.1321 59.0151 19.6847C57.8037 20.2372 56.3373 20.5135 54.6158 20.5135H50.4397V27.5269H44.9565V6.48686H54.6158ZM53.7551 16.4012C54.9027 16.4012 55.7635 16.1674 56.3373 15.6998C56.9323 15.211 57.2299 14.4778 57.2299 13.5002C57.2299 12.5226 56.9323 11.8 56.3373 11.3324C55.7635 10.8436 54.9027 10.5992 53.7551 10.5992H50.4397V16.4012H53.7551ZM65.868 27.5269V11.5875H70.6498L70.873 15.0304C71.2768 13.8402 71.8719 12.9157 72.6582 12.2569C73.4658 11.5981 74.4859 11.2687 75.7186 11.2687C76.1224 11.2687 76.4624 11.3006 76.7387 11.3643C77.0362 11.4281 77.27 11.5131 77.44 11.6193L76.8981 16.0824C76.6856 15.9974 76.4093 15.9336 76.0692 15.8911C75.7504 15.8273 75.3573 15.7955 74.8897 15.7955C74.2521 15.7955 73.6571 15.9336 73.1045 16.2099C72.5519 16.4862 72.1056 16.9006 71.7656 17.4532C71.4468 17.9845 71.2874 18.6646 71.2874 19.4934V27.5269H65.868ZM87.1576 27.8456C85.3936 27.8456 83.8634 27.5162 82.567 26.8574C81.2919 26.1986 80.3036 25.2528 79.6023 24.0202C78.901 22.7875 78.5503 21.2999 78.5503 19.5572C78.5503 17.8145 78.901 16.3268 79.6023 15.0941C80.3036 13.8615 81.2812 12.9157 82.5351 12.2569C83.8103 11.5981 85.2661 11.2687 86.9025 11.2687C88.5815 11.2687 90.0054 11.5981 91.1743 12.2569C92.3644 12.8945 93.2677 13.7871 93.884 14.9347C94.5003 16.0611 94.8085 17.3575 94.8085 18.8239C94.8085 19.2065 94.7978 19.589 94.7766 19.9716C94.7553 20.3541 94.7235 20.6729 94.681 20.9279H82.057V18.027H92.29L89.7079 19.0152C89.7079 17.7401 89.4741 16.7625 89.0065 16.0824C88.5602 15.4023 87.8589 15.0623 86.9025 15.0623C86.2225 15.0623 85.638 15.2216 85.1492 15.5404C84.6816 15.8592 84.3204 16.3587 84.0653 17.0387C83.8315 17.7188 83.7147 18.5902 83.7147 19.6528C83.7147 20.6942 83.8528 21.5443 84.1291 22.2031C84.4054 22.8407 84.7985 23.3082 85.3086 23.6058C85.8187 23.882 86.435 24.0202 87.1576 24.0202C87.9652 24.0202 88.6027 23.8608 89.0703 23.542C89.5591 23.2232 89.9204 22.7769 90.1542 22.2031L94.4897 23.6376C94.1921 24.5515 93.6715 25.3272 92.9276 25.9648C92.205 26.5811 91.3337 27.0487 90.3136 27.3675C89.3147 27.6862 88.2627 27.8456 87.1576 27.8456ZM104.535 27.8456C102.941 27.8456 101.453 27.5906 100.072 27.0806C98.7116 26.5492 97.5852 25.7948 96.6926 24.8172L99.2429 21.8206C99.7742 22.5006 100.476 23.0745 101.347 23.542C102.239 23.9883 103.228 24.2115 104.312 24.2115C104.97 24.2115 105.512 24.1158 105.937 23.9246C106.362 23.7333 106.575 23.4357 106.575 23.0319C106.575 22.7344 106.469 22.5006 106.256 22.3306C106.044 22.1393 105.619 21.9799 104.981 21.8524L102.75 21.4061C100.752 21.0023 99.3279 20.4073 98.4778 19.6209C97.6489 18.8133 97.2345 17.7613 97.2345 16.4649C97.2345 15.5936 97.5002 14.7647 98.0315 13.9784C98.5628 13.1708 99.381 12.5226 100.486 12.0338C101.591 11.5237 103.005 11.2687 104.726 11.2687C106.341 11.2687 107.765 11.5025 108.998 11.97C110.23 12.4376 111.208 13.1176 111.931 14.0103L109.348 16.9431C108.838 16.3055 108.18 15.8061 107.372 15.4448C106.564 15.0835 105.757 14.9029 104.949 14.9029C104.439 14.9029 104.003 14.956 103.642 15.0623C103.302 15.1473 103.047 15.2748 102.877 15.4448C102.707 15.6148 102.622 15.8273 102.622 16.0824C102.622 16.3587 102.75 16.6031 103.005 16.8156C103.281 17.0069 103.78 17.1769 104.503 17.3256L107.404 17.8995C109.04 18.197 110.22 18.7389 110.942 19.5253C111.665 20.3116 112.026 21.2574 112.026 22.3625C112.026 23.4039 111.75 24.339 111.197 25.1678C110.645 25.9967 109.816 26.6555 108.711 27.1443C107.606 27.6119 106.214 27.8456 104.535 27.8456ZM121.501 6.51874V21.8524C121.501 22.6175 121.681 23.1701 122.043 23.5101C122.425 23.8289 122.946 23.9883 123.605 23.9883C124.115 23.9883 124.55 23.9352 124.912 23.8289C125.294 23.7014 125.634 23.5208 125.932 23.287L126.506 26.6342C125.974 27.0168 125.305 27.3143 124.497 27.5269C123.69 27.7394 122.861 27.8456 122.011 27.8456C120.799 27.8456 119.747 27.6756 118.855 27.3356C117.983 26.9955 117.303 26.4536 116.815 25.7098C116.347 24.9659 116.103 23.9777 116.081 22.745V8.01704L121.501 6.51874ZM126.251 11.5875V15.4448H113.34V11.5875H126.251ZM136.341 11.2687C138.02 11.2687 139.486 11.5981 140.74 12.2569C142.015 12.8945 143.004 13.8402 143.705 15.0941C144.428 16.3268 144.789 17.8145 144.789 19.5572C144.789 21.2999 144.428 22.7982 143.705 24.0521C143.004 25.2847 142.015 26.2305 140.74 26.8893C139.486 27.5269 138.02 27.8456 136.341 27.8456C134.705 27.8456 133.249 27.5269 131.974 26.8893C130.698 26.2305 129.7 25.2847 128.977 24.0521C128.276 22.7982 127.925 21.2999 127.925 19.5572C127.925 17.8145 128.276 16.3268 128.977 15.0941C129.7 13.8402 130.698 12.8945 131.974 12.2569C133.249 11.5981 134.705 11.2687 136.341 11.2687ZM136.341 15.126C135.725 15.126 135.193 15.2748 134.747 15.5723C134.301 15.8698 133.961 16.348 133.727 17.0069C133.493 17.6657 133.376 18.5158 133.376 19.5572C133.376 20.5985 133.493 21.4486 133.727 22.1075C133.961 22.745 134.301 23.2232 134.747 23.542C135.193 23.8395 135.725 23.9883 136.341 23.9883C136.979 23.9883 137.521 23.8395 137.967 23.542C138.413 23.2232 138.753 22.745 138.987 22.1075C139.221 21.4486 139.338 20.5985 139.338 19.5572C139.338 18.5158 139.221 17.6657 138.987 17.0069C138.753 16.348 138.413 15.8698 137.967 15.5723C137.521 15.2748 136.979 15.126 136.341 15.126Z" fill="white"/>
</g>
<defs>
<clipPath id="clip0_0_457">
<rect width="146.513" height="41.2903" fill="white" transform="translate(0.179688 -4.47314)"/>
</clipPath>
<clipPath id="clip1_0_457">
<rect width="32.745" height="34.8351" fill="white" transform="translate(-0.0114746 -0.319336)"/>
</clipPath>
</defs>
</svg>
