<svg width="112" height="37" viewBox="0 0 112 37" fill="none" xmlns="http://www.w3.org/2000/svg">
<g clip-path="url(#clip0_0_461)">
<g clip-path="url(#clip1_0_461)">
<path d="M9.82514 2.69273C9.78775 2.62059 9.76494 2.54179 9.75801 2.46082C9.75109 2.37986 9.76018 2.29833 9.78477 2.22088C9.80936 2.14343 9.84897 2.07159 9.90134 2.00946C9.95371 1.94732 10.0178 1.89611 10.09 1.85876C12.3042 0.73277 14.7639 0.175537 17.2472 0.237293C19.7305 0.29905 22.1595 0.977855 24.315 2.21251C24.3857 2.25317 24.4477 2.30743 24.4973 2.37215C24.5469 2.43687 24.5833 2.51078 24.6042 2.58962C24.6251 2.66845 24.6302 2.75065 24.6192 2.83146C24.6082 2.91228 24.5813 2.99012 24.5401 3.06049L17.419 15.2818C17.3647 15.3754 17.2866 15.453 17.1928 15.5069C17.099 15.5608 16.9926 15.5891 16.8844 15.589H16.8687C16.7578 15.586 16.6498 15.5534 16.5558 15.4946C16.4618 15.4358 16.3852 15.3529 16.3341 15.2545L9.82514 2.69273ZM16.5024 18.8483V18.8471L9.99323 6.28529C9.91763 6.13986 9.78756 6.03024 9.63143 5.98037C9.4753 5.9305 9.30577 5.94442 9.15987 6.0191C7.4251 6.90861 5.88307 8.13195 4.6223 9.61893C3.36152 11.1059 2.40682 12.8272 1.81298 14.6841C1.21914 16.541 0.997864 18.4969 1.16185 20.4395C1.32583 22.3821 1.87184 24.2732 2.76855 26.0043C3.66525 27.7353 4.89499 29.2722 6.38719 30.5268C7.87939 31.7814 9.60467 32.729 11.464 33.3151C13.3233 33.9012 15.2801 34.1143 17.222 33.9423C19.1639 33.7702 21.0528 33.2164 22.7801 32.3125C22.9252 32.2365 23.0343 32.1062 23.0837 31.9501C23.1331 31.7939 23.1188 31.6246 23.0438 31.479L16.5024 18.8483ZM24.1324 30.7218L24.182 30.8209C24.2568 30.967 24.3857 31.0781 24.5412 31.1306C24.605 31.1517 24.6723 31.1601 24.7394 31.1553C24.8374 31.1526 24.934 31.1316 25.0243 31.0934C25.2497 30.9817 25.4689 30.8576 25.6807 30.7218C26.3107 30.3563 26.9112 29.9422 27.4768 29.4832H23.4883L24.1324 30.7218ZM22.8443 28.2445H28.8269C29.2115 27.858 29.5676 27.4441 29.8921 27.0059H22.2002L22.8443 28.2445ZM21.5685 25.7673H30.7716C31.0253 25.3696 31.2528 24.9558 31.4528 24.5286H20.9244L21.5685 25.7673ZM20.2803 23.29H31.9978C32.1622 22.8856 32.3028 22.4721 32.4189 22.0513H19.6362L20.2803 23.29ZM18.9921 20.8127H32.7286C32.8029 20.4039 32.8649 19.9952 32.902 19.574H18.3604L18.9921 20.8127ZM25.6312 5.15627C25.5617 5.11304 25.4837 5.08515 25.4025 5.07447C25.3214 5.06379 25.2389 5.07056 25.1605 5.09434C25.0803 5.11266 25.0047 5.14744 24.9386 5.19648C24.8725 5.24552 24.8173 5.30775 24.7765 5.37922L24.4421 5.949H26.8327C26.4466 5.66346 26.0456 5.39883 25.6312 5.15627ZM28.3314 7.18764H23.7237L23.0053 8.42628H29.5081C29.1417 7.98967 28.7487 7.57601 28.3314 7.18764ZM30.4371 9.66492H22.2745L21.5561 10.9036H31.1927C30.9692 10.474 30.7168 10.0602 30.4371 9.66492ZM31.7872 12.1422H20.8377L20.1192 13.3808H32.2703C32.133 12.9591 31.9717 12.5455 31.7872 12.1422ZM32.6171 14.6195H19.3884L18.67 15.8581H32.8401C32.7909 15.4411 32.7165 15.0275 32.6171 14.6195ZM32.9639 17.0968H17.9516L17.6543 17.6046C17.6007 17.694 17.5713 17.796 17.5691 17.9002C17.5669 18.0045 17.5921 18.1076 17.642 18.1992L17.7163 18.3354H32.9887C33.0011 18.2115 33.0011 18.0753 33.0011 17.9514C33.0011 17.6665 32.9887 17.3817 32.9639 17.0968Z" fill="white"/>
<path d="M9.54065 5.40689C9.31361 4.97667 8.77923 4.80987 8.3624 5.06066C5.06252 7.04602 2.59713 10.1819 1.45372 13.8808C0.223351 17.8609 0.624478 22.1668 2.56886 25.8512C4.51323 29.5356 7.84159 32.2966 11.8217 33.527C15.5206 34.6704 19.5007 34.4048 23.0019 32.801C23.4442 32.5984 23.6081 32.0631 23.381 31.6329L16.4608 18.5199L9.54065 5.40689Z" fill="white"/>
</g>
<path d="M55.1014 6.48686C56.8229 6.48686 58.2893 6.76315 59.5007 7.31571C60.7121 7.86828 61.6366 8.66525 62.2741 9.70662C62.9117 10.748 63.2305 12.0125 63.2305 13.5002C63.2305 14.9879 62.9117 16.2524 62.2741 17.2938C61.6366 18.3351 60.7121 19.1321 59.5007 19.6847C58.2893 20.2372 56.8229 20.5135 55.1014 20.5135H50.9253V27.5269H45.4421V6.48686H55.1014ZM54.2407 16.4012C55.3883 16.4012 56.249 16.1674 56.8229 15.6998C57.4179 15.211 57.7155 14.4778 57.7155 13.5002C57.7155 12.5226 57.4179 11.8 56.8229 11.3324C56.249 10.8436 55.3883 10.5992 54.2407 10.5992H50.9253V16.4012H54.2407ZM66.3536 27.5269V11.5875H71.1354L71.3586 15.0304C71.7624 13.8402 72.3575 12.9157 73.1438 12.2569C73.9514 11.5981 74.9715 11.2687 76.2042 11.2687C76.608 11.2687 76.948 11.3006 77.2243 11.3643C77.5218 11.4281 77.7556 11.5131 77.9256 11.6193L77.3837 16.0824C77.1712 15.9974 76.8949 15.9336 76.5548 15.8911C76.236 15.8273 75.8429 15.7955 75.3753 15.7955C74.7377 15.7955 74.1427 15.9336 73.5901 16.2099C73.0375 16.4862 72.5912 16.9006 72.2512 17.4532C71.9324 17.9845 71.773 18.6646 71.773 19.4934V27.5269H66.3536ZM87.6432 27.8456C85.8792 27.8456 84.349 27.5162 83.0526 26.8574C81.7775 26.1986 80.7892 25.2528 80.0879 24.0202C79.3866 22.7875 79.0359 21.2999 79.0359 19.5572C79.0359 17.8145 79.3866 16.3268 80.0879 15.0941C80.7892 13.8615 81.7668 12.9157 83.0207 12.2569C84.2959 11.5981 85.7517 11.2687 87.3881 11.2687C89.0671 11.2687 90.491 11.5981 91.6599 12.2569C92.85 12.8945 93.7533 13.7871 94.3696 14.9347C94.9859 16.0611 95.2941 17.3575 95.2941 18.8239C95.2941 19.2065 95.2834 19.589 95.2622 19.9716C95.2409 20.3541 95.2091 20.6729 95.1666 20.9279H82.5426V18.027H92.7756L90.1935 19.0152C90.1935 17.7401 89.9597 16.7625 89.4921 16.0824C89.0458 15.4023 88.3445 15.0623 87.3881 15.0623C86.7081 15.0623 86.1236 15.2216 85.6348 15.5404C85.1672 15.8592 84.806 16.3587 84.5509 17.0387C84.3171 17.7188 84.2003 18.5902 84.2003 19.6528C84.2003 20.6942 84.3384 21.5443 84.6147 22.2031C84.891 22.8407 85.2841 23.3082 85.7942 23.6058C86.3043 23.882 86.9206 24.0202 87.6432 24.0202C88.4508 24.0202 89.0883 23.8608 89.5559 23.542C90.0447 23.2232 90.406 22.7769 90.6398 22.2031L94.9753 23.6376C94.6777 24.5515 94.1571 25.3272 93.4132 25.9648C92.6906 26.5811 91.8193 27.0487 90.7992 27.3675C89.8003 27.6862 88.7483 27.8456 87.6432 27.8456ZM105.02 27.8456C103.426 27.8456 101.939 27.5906 100.557 27.0806C99.1971 26.5492 98.0708 25.7948 97.1782 24.8172L99.7285 21.8206C100.26 22.5006 100.961 23.0745 101.832 23.542C102.725 23.9883 103.713 24.2115 104.797 24.2115C105.456 24.2115 105.998 24.1158 106.423 23.9246C106.848 23.7333 107.061 23.4357 107.061 23.0319C107.061 22.7344 106.954 22.5006 106.742 22.3306C106.529 22.1393 106.104 21.9799 105.467 21.8524L103.235 21.4061C101.237 21.0023 99.8135 20.4073 98.9634 19.6209C98.1345 18.8133 97.7201 17.7613 97.7201 16.4649C97.7201 15.5936 97.9858 14.7647 98.5171 13.9784C99.0484 13.1708 99.8666 12.5226 100.972 12.0338C102.077 11.5237 103.49 11.2687 105.212 11.2687C106.827 11.2687 108.251 11.5025 109.483 11.97C110.716 12.4376 111.694 13.1176 112.416 14.0103L109.834 16.9431C109.324 16.3055 108.665 15.8061 107.858 15.4448C107.05 15.0835 106.242 14.9029 105.435 14.9029C104.925 14.9029 104.489 14.956 104.128 15.0623C103.788 15.1473 103.533 15.2748 103.363 15.4448C103.193 15.6148 103.108 15.8273 103.108 16.0824C103.108 16.3587 103.235 16.6031 103.49 16.8156C103.766 17.0069 104.266 17.1769 104.988 17.3256L107.889 17.8995C109.526 18.197 110.705 18.7389 111.428 19.5253C112.151 20.3116 112.512 21.2574 112.512 22.3625C112.512 23.4039 112.236 24.339 111.683 25.1678C111.13 25.9967 110.302 26.6555 109.196 27.1443C108.091 27.6119 106.699 27.8456 105.02 27.8456ZM121.986 6.51874V21.8524C121.986 22.6175 122.167 23.1701 122.528 23.5101C122.911 23.8289 123.431 23.9883 124.09 23.9883C124.6 23.9883 125.036 23.9352 125.397 23.8289C125.78 23.7014 126.12 23.5208 126.417 23.287L126.991 26.6342C126.46 27.0168 125.791 27.3143 124.983 27.5269C124.175 27.7394 123.346 27.8456 122.496 27.8456C121.285 27.8456 120.233 27.6756 119.34 27.3356C118.469 26.9955 117.789 26.4536 117.3 25.7098C116.833 24.9659 116.588 23.9777 116.567 22.745V8.01704L121.986 6.51874ZM126.736 11.5875V15.4448H113.825V11.5875H126.736ZM136.827 11.2687C138.506 11.2687 139.972 11.5981 141.226 12.2569C142.501 12.8945 143.489 13.8402 144.191 15.0941C144.913 16.3268 145.275 17.8145 145.275 19.5572C145.275 21.2999 144.913 22.7982 144.191 24.0521C143.489 25.2847 142.501 26.2305 141.226 26.8893C139.972 27.5269 138.506 27.8456 136.827 27.8456C135.19 27.8456 133.734 27.5269 132.459 26.8893C131.184 26.2305 130.185 25.2847 129.463 24.0521C128.761 22.7982 128.411 21.2999 128.411 19.5572C128.411 17.8145 128.761 16.3268 129.463 15.0941C130.185 13.8402 131.184 12.8945 132.459 12.2569C133.734 11.5981 135.19 11.2687 136.827 11.2687ZM136.827 15.126C136.21 15.126 135.679 15.2748 135.233 15.5723C134.786 15.8698 134.446 16.348 134.213 17.0069C133.979 17.6657 133.862 18.5158 133.862 19.5572C133.862 20.5985 133.979 21.4486 134.213 22.1075C134.446 22.745 134.786 23.2232 135.233 23.542C135.679 23.8395 136.21 23.9883 136.827 23.9883C137.464 23.9883 138.006 23.8395 138.452 23.542C138.899 23.2232 139.239 22.745 139.473 22.1075C139.706 21.4486 139.823 20.5985 139.823 19.5572C139.823 18.5158 139.706 17.6657 139.473 17.0069C139.239 16.348 138.899 15.8698 138.452 15.5723C138.006 15.2748 137.464 15.126 136.827 15.126Z" fill="white"/>
</g>
<defs>
<clipPath id="clip0_0_461">
<rect width="146.513" height="41.2903" fill="white" transform="translate(0.665283 -4.47314)"/>
</clipPath>
<clipPath id="clip1_0_461">
<rect width="32.745" height="34.8351" fill="white" transform="translate(0.474121 -0.319336)"/>
</clipPath>
</defs>
</svg>
